<mxfile host="app.diagrams.net" agent="Mozilla/5.0 (Macintosh; Intel Mac OS X 10_15_7) AppleWebKit/537.36 (KHTML, like Gecko) Chrome/132.0.0.0 Safari/537.36" version="26.0.10">
  <diagram name="Page-1" id="9QSklhJ7rYfCBNTPpSIo">
    <mxGraphModel dx="1166" dy="673" grid="0" gridSize="10" guides="1" tooltips="1" connect="1" arrows="1" fold="1" page="1" pageScale="1" pageWidth="850" pageHeight="1100" math="0" shadow="0">
      <root>
        <mxCell id="0" />
        <mxCell id="1" parent="0" />
        <mxCell id="4QO9HTvv0mizKw2v97-c-1" value="&lt;font style=&quot;font-size: 14px;&quot;&gt;AWS Account A&lt;/font&gt;" style="points=[[0,0],[0.25,0],[0.5,0],[0.75,0],[1,0],[1,0.25],[1,0.5],[1,0.75],[1,1],[0.75,1],[0.5,1],[0.25,1],[0,1],[0,0.75],[0,0.5],[0,0.25]];outlineConnect=0;gradientColor=none;html=1;whiteSpace=wrap;fontSize=12;fontStyle=0;container=1;pointerEvents=0;collapsible=0;recursiveResize=0;shape=mxgraph.aws4.group;grIcon=mxgraph.aws4.group_account;strokeColor=#CD2264;fillColor=none;verticalAlign=top;align=left;spacingLeft=30;fontColor=#CD2264;dashed=0;movable=1;resizable=1;rotatable=1;deletable=1;editable=1;locked=0;connectable=1;" vertex="1" parent="1">
          <mxGeometry x="20" y="120" width="1150" height="480" as="geometry" />
        </mxCell>
        <mxCell id="4QO9HTvv0mizKw2v97-c-2" value="us-east-2" style="shape=mxgraph.ibm.box;prType=region;fontStyle=0;verticalAlign=top;align=left;spacingLeft=32;spacingTop=4;fillColor=none;rounded=0;whiteSpace=wrap;html=1;strokeColor=#919191;strokeWidth=2;dashed=0;container=0;spacing=-4;collapsible=0;expand=0;recursiveResize=0;" vertex="1" parent="4QO9HTvv0mizKw2v97-c-1">
          <mxGeometry x="15" y="50" width="435" height="400" as="geometry" />
        </mxCell>
        <mxCell id="4QO9HTvv0mizKw2v97-c-3" value="source-vpc" style="points=[[0,0],[0.25,0],[0.5,0],[0.75,0],[1,0],[1,0.25],[1,0.5],[1,0.75],[1,1],[0.75,1],[0.5,1],[0.25,1],[0,1],[0,0.75],[0,0.5],[0,0.25]];outlineConnect=0;gradientColor=none;html=1;whiteSpace=wrap;fontSize=12;fontStyle=0;container=1;pointerEvents=0;collapsible=0;recursiveResize=0;shape=mxgraph.aws4.group;grIcon=mxgraph.aws4.group_vpc;strokeColor=#248814;fillColor=none;verticalAlign=top;align=left;spacingLeft=30;fontColor=#AAB7B8;dashed=0;" vertex="1" parent="4QO9HTvv0mizKw2v97-c-1">
          <mxGeometry x="30" y="90" width="400" height="215" as="geometry" />
        </mxCell>
        <mxCell id="4QO9HTvv0mizKw2v97-c-7" value="Private subnet" style="points=[[0,0],[0.25,0],[0.5,0],[0.75,0],[1,0],[1,0.25],[1,0.5],[1,0.75],[1,1],[0.75,1],[0.5,1],[0.25,1],[0,1],[0,0.75],[0,0.5],[0,0.25]];outlineConnect=0;gradientColor=none;html=1;whiteSpace=wrap;fontSize=12;fontStyle=0;container=1;pointerEvents=0;collapsible=0;recursiveResize=0;shape=mxgraph.aws4.group;grIcon=mxgraph.aws4.group_security_group;grStroke=0;strokeColor=#147EBA;fillColor=#E6F2F8;verticalAlign=top;align=left;spacingLeft=30;fontColor=#147EBA;dashed=0;" vertex="1" parent="4QO9HTvv0mizKw2v97-c-1">
          <mxGeometry x="175" y="130" width="215" height="130" as="geometry" />
        </mxCell>
        <mxCell id="4QO9HTvv0mizKw2v97-c-10" value="Public subnet" style="points=[[0,0],[0.25,0],[0.5,0],[0.75,0],[1,0],[1,0.25],[1,0.5],[1,0.75],[1,1],[0.75,1],[0.5,1],[0.25,1],[0,1],[0,0.75],[0,0.5],[0,0.25]];outlineConnect=0;gradientColor=none;html=1;whiteSpace=wrap;fontSize=12;fontStyle=0;container=1;pointerEvents=0;collapsible=0;recursiveResize=0;shape=mxgraph.aws4.group;grIcon=mxgraph.aws4.group_security_group;grStroke=0;strokeColor=#248814;fillColor=#E9F3E6;verticalAlign=top;align=left;spacingLeft=30;fontColor=#248814;dashed=0;" vertex="1" parent="4QO9HTvv0mizKw2v97-c-1">
          <mxGeometry x="40" y="130" width="120" height="130" as="geometry" />
        </mxCell>
        <mxCell id="4QO9HTvv0mizKw2v97-c-11" value="ENI" style="sketch=0;outlineConnect=0;fontColor=#232F3E;gradientColor=none;fillColor=#8C4FFF;strokeColor=none;dashed=0;verticalLabelPosition=bottom;verticalAlign=top;align=center;html=1;fontSize=12;fontStyle=0;aspect=fixed;pointerEvents=1;shape=mxgraph.aws4.elastic_network_interface;" vertex="1" parent="4QO9HTvv0mizKw2v97-c-10">
          <mxGeometry x="40" y="60" width="40" height="40" as="geometry" />
        </mxCell>
        <mxCell id="4QO9HTvv0mizKw2v97-c-12" value="NAT Gateway" style="sketch=0;outlineConnect=0;fontColor=#232F3E;gradientColor=none;fillColor=#8C4FFF;strokeColor=none;dashed=0;verticalLabelPosition=bottom;verticalAlign=top;align=center;html=1;fontSize=12;fontStyle=0;aspect=fixed;pointerEvents=1;shape=mxgraph.aws4.nat_gateway;" vertex="1" parent="4QO9HTvv0mizKw2v97-c-1">
          <mxGeometry x="80" y="320" width="40" height="40" as="geometry" />
        </mxCell>
        <mxCell id="4QO9HTvv0mizKw2v97-c-15" value="" style="endArrow=classic;html=1;rounded=0;" edge="1" parent="4QO9HTvv0mizKw2v97-c-1" source="4QO9HTvv0mizKw2v97-c-12">
          <mxGeometry width="50" height="50" relative="1" as="geometry">
            <mxPoint x="620" y="340" as="sourcePoint" />
            <mxPoint x="270.28812525416834" y="379.18522428108054" as="targetPoint" />
            <Array as="points">
              <mxPoint x="100" y="380" />
            </Array>
          </mxGeometry>
        </mxCell>
        <mxCell id="4QO9HTvv0mizKw2v97-c-16" value="" style="edgeStyle=orthogonalEdgeStyle;html=1;endArrow=block;elbow=vertical;startArrow=none;endFill=1;strokeColor=#545B64;rounded=0;" edge="1" parent="4QO9HTvv0mizKw2v97-c-1" source="4QO9HTvv0mizKw2v97-c-11" target="4QO9HTvv0mizKw2v97-c-12">
          <mxGeometry width="100" relative="1" as="geometry">
            <mxPoint x="590" y="320" as="sourcePoint" />
            <mxPoint x="690" y="320" as="targetPoint" />
          </mxGeometry>
        </mxCell>
        <mxCell id="4QO9HTvv0mizKw2v97-c-20" value="10.3.0.0/16" style="text;html=1;strokeColor=none;fillColor=none;align=center;verticalAlign=middle;whiteSpace=wrap;rounded=0;" vertex="1" parent="4QO9HTvv0mizKw2v97-c-1">
          <mxGeometry x="373.18" y="60" width="60" height="30" as="geometry" />
        </mxCell>
        <mxCell id="4QO9HTvv0mizKw2v97-c-21" value="" style="endArrow=classic;html=1;rounded=0;" edge="1" parent="4QO9HTvv0mizKw2v97-c-1" target="4QO9HTvv0mizKw2v97-c-11">
          <mxGeometry width="50" height="50" relative="1" as="geometry">
            <mxPoint x="200" y="210" as="sourcePoint" />
            <mxPoint x="670" y="290" as="targetPoint" />
            <Array as="points">
              <mxPoint x="150" y="210" />
            </Array>
          </mxGeometry>
        </mxCell>
        <mxCell id="4QO9HTvv0mizKw2v97-c-24" value="us-east-1" style="shape=mxgraph.ibm.box;prType=region;fontStyle=0;verticalAlign=top;align=left;spacingLeft=32;spacingTop=4;fillColor=none;rounded=0;whiteSpace=wrap;html=1;strokeColor=#919191;strokeWidth=2;dashed=0;container=1;spacing=-4;collapsible=0;expand=0;recursiveResize=0;" vertex="1" parent="4QO9HTvv0mizKw2v97-c-1">
          <mxGeometry x="600" y="50" width="365" height="400" as="geometry" />
        </mxCell>
        <mxCell id="4QO9HTvv0mizKw2v97-c-25" value="destination-VPC" style="points=[[0,0],[0.25,0],[0.5,0],[0.75,0],[1,0],[1,0.25],[1,0.5],[1,0.75],[1,1],[0.75,1],[0.5,1],[0.25,1],[0,1],[0,0.75],[0,0.5],[0,0.25]];outlineConnect=0;gradientColor=none;html=1;whiteSpace=wrap;fontSize=12;fontStyle=0;container=1;pointerEvents=0;collapsible=0;recursiveResize=0;shape=mxgraph.aws4.group;grIcon=mxgraph.aws4.group_vpc;strokeColor=#248814;fillColor=none;verticalAlign=top;align=left;spacingLeft=30;fontColor=#AAB7B8;dashed=0;" vertex="1" parent="4QO9HTvv0mizKw2v97-c-24">
          <mxGeometry x="40" y="40" width="290" height="210" as="geometry" />
        </mxCell>
        <mxCell id="4QO9HTvv0mizKw2v97-c-26" value="PrivateLink" style="sketch=0;points=[[0,0,0],[0.25,0,0],[0.5,0,0],[0.75,0,0],[1,0,0],[0,1,0],[0.25,1,0],[0.5,1,0],[0.75,1,0],[1,1,0],[0,0.25,0],[0,0.5,0],[0,0.75,0],[1,0.25,0],[1,0.5,0],[1,0.75,0]];outlineConnect=0;fontColor=#232F3E;fillColor=#8C4FFF;strokeColor=#ffffff;dashed=0;verticalLabelPosition=bottom;verticalAlign=top;align=center;html=1;fontSize=12;fontStyle=0;aspect=fixed;shape=mxgraph.aws4.resourceIcon;resIcon=mxgraph.aws4.vpc_privatelink;" vertex="1" parent="4QO9HTvv0mizKw2v97-c-24">
          <mxGeometry x="105" y="220" width="30" height="30" as="geometry" />
        </mxCell>
        <mxCell id="4QO9HTvv0mizKw2v97-c-27" value="Private subnet" style="points=[[0,0],[0.25,0],[0.5,0],[0.75,0],[1,0],[1,0.25],[1,0.5],[1,0.75],[1,1],[0.75,1],[0.5,1],[0.25,1],[0,1],[0,0.75],[0,0.5],[0,0.25]];outlineConnect=0;gradientColor=none;html=1;whiteSpace=wrap;fontSize=12;fontStyle=0;container=1;pointerEvents=0;collapsible=0;recursiveResize=0;shape=mxgraph.aws4.group;grIcon=mxgraph.aws4.group_security_group;grStroke=0;strokeColor=#147EBA;fillColor=#E6F2F8;verticalAlign=top;align=left;spacingLeft=30;fontColor=#147EBA;dashed=0;" vertex="1" parent="4QO9HTvv0mizKw2v97-c-24">
          <mxGeometry x="95" y="80" width="130" height="130" as="geometry" />
        </mxCell>
        <mxCell id="4QO9HTvv0mizKw2v97-c-28" value="ENI" style="sketch=0;outlineConnect=0;fontColor=#232F3E;gradientColor=none;fillColor=#8C4FFF;strokeColor=none;dashed=0;verticalLabelPosition=bottom;verticalAlign=top;align=center;html=1;fontSize=12;fontStyle=0;aspect=fixed;pointerEvents=1;shape=mxgraph.aws4.elastic_network_interface;" vertex="1" parent="4QO9HTvv0mizKw2v97-c-27">
          <mxGeometry x="45" y="50" width="40" height="40" as="geometry" />
        </mxCell>
        <mxCell id="4QO9HTvv0mizKw2v97-c-30" value="" style="edgeStyle=orthogonalEdgeStyle;html=1;endArrow=block;elbow=vertical;startArrow=none;endFill=1;strokeColor=#545B64;rounded=0;entryX=0.5;entryY=0;entryDx=0;entryDy=0;entryPerimeter=0;" edge="1" parent="4QO9HTvv0mizKw2v97-c-24" source="4QO9HTvv0mizKw2v97-c-28" target="4QO9HTvv0mizKw2v97-c-26">
          <mxGeometry width="100" relative="1" as="geometry">
            <mxPoint x="30" y="270" as="sourcePoint" />
            <mxPoint x="130" y="270" as="targetPoint" />
          </mxGeometry>
        </mxCell>
        <mxCell id="4QO9HTvv0mizKw2v97-c-31" value="AWS Bedrock" style="sketch=0;outlineConnect=0;fontColor=#232F3E;gradientColor=none;fillColor=#01A88D;strokeColor=none;dashed=0;verticalLabelPosition=bottom;verticalAlign=top;align=center;html=1;fontSize=12;fontStyle=0;aspect=fixed;pointerEvents=1;shape=mxgraph.aws4.sagemaker_model;" vertex="1" parent="4QO9HTvv0mizKw2v97-c-24">
          <mxGeometry x="180" y="290" width="78" height="78" as="geometry" />
        </mxCell>
        <mxCell id="4QO9HTvv0mizKw2v97-c-32" value="" style="edgeStyle=orthogonalEdgeStyle;html=1;endArrow=block;elbow=vertical;startArrow=none;endFill=1;strokeColor=#545B64;rounded=0;exitX=1;exitY=0.75;exitDx=0;exitDy=0;exitPerimeter=0;" edge="1" parent="4QO9HTvv0mizKw2v97-c-24" source="4QO9HTvv0mizKw2v97-c-26" target="4QO9HTvv0mizKw2v97-c-31">
          <mxGeometry width="100" relative="1" as="geometry">
            <mxPoint x="90" y="271" as="sourcePoint" />
            <mxPoint x="90" y="270" as="targetPoint" />
          </mxGeometry>
        </mxCell>
        <mxCell id="4QO9HTvv0mizKw2v97-c-33" value="10.4.0.0/16" style="text;html=1;strokeColor=none;fillColor=none;align=center;verticalAlign=middle;whiteSpace=wrap;rounded=0;" vertex="1" parent="4QO9HTvv0mizKw2v97-c-24">
          <mxGeometry x="270" y="10" width="60" height="30" as="geometry" />
        </mxCell>
        <mxCell id="4QO9HTvv0mizKw2v97-c-39" value="us-west-2" style="shape=mxgraph.ibm.box;prType=region;fontStyle=0;verticalAlign=top;align=left;spacingLeft=32;spacingTop=4;fillColor=none;rounded=0;whiteSpace=wrap;html=1;strokeColor=#919191;strokeWidth=2;dashed=0;container=1;spacing=-4;collapsible=0;expand=0;recursiveResize=0;" vertex="1" parent="4QO9HTvv0mizKw2v97-c-1">
          <mxGeometry x="990" y="50" width="130" height="400" as="geometry" />
        </mxCell>
        <mxCell id="4QO9HTvv0mizKw2v97-c-46" value="AWS Bedrock" style="sketch=0;outlineConnect=0;fontColor=#232F3E;gradientColor=none;fillColor=#01A88D;strokeColor=none;dashed=0;verticalLabelPosition=bottom;verticalAlign=top;align=center;html=1;fontSize=12;fontStyle=0;aspect=fixed;pointerEvents=1;shape=mxgraph.aws4.sagemaker_model;" vertex="1" parent="4QO9HTvv0mizKw2v97-c-39">
          <mxGeometry x="26" y="290" width="78" height="78" as="geometry" />
        </mxCell>
        <mxCell id="4QO9HTvv0mizKw2v97-c-49" style="edgeStyle=orthogonalEdgeStyle;rounded=0;orthogonalLoop=1;jettySize=auto;html=1;" edge="1" parent="4QO9HTvv0mizKw2v97-c-1" source="4QO9HTvv0mizKw2v97-c-31" target="4QO9HTvv0mizKw2v97-c-46">
          <mxGeometry relative="1" as="geometry" />
        </mxCell>
        <mxCell id="4QO9HTvv0mizKw2v97-c-50" value="Cross-region-inference" style="edgeLabel;html=1;align=center;verticalAlign=middle;resizable=0;points=[];" vertex="1" connectable="0" parent="4QO9HTvv0mizKw2v97-c-49">
          <mxGeometry x="-0.1256" y="1" relative="1" as="geometry">
            <mxPoint as="offset" />
          </mxGeometry>
        </mxCell>
        <mxCell id="4QO9HTvv0mizKw2v97-c-51" value="Amazon EC2" style="sketch=0;outlineConnect=0;fontColor=#232F3E;gradientColor=none;strokeColor=#ffffff;fillColor=#232F3E;dashed=0;verticalLabelPosition=middle;verticalAlign=bottom;align=center;html=1;whiteSpace=wrap;fontSize=10;fontStyle=1;spacing=3;shape=mxgraph.aws4.productIcon;prIcon=mxgraph.aws4.ec2;" vertex="1" parent="4QO9HTvv0mizKw2v97-c-1">
          <mxGeometry x="200" y="160" width="80" height="100" as="geometry" />
        </mxCell>
        <mxCell id="4QO9HTvv0mizKw2v97-c-52" value="AWS Systems Manager" style="sketch=0;outlineConnect=0;fontColor=#232F3E;gradientColor=none;strokeColor=#ffffff;fillColor=#232F3E;dashed=0;verticalLabelPosition=middle;verticalAlign=bottom;align=center;html=1;whiteSpace=wrap;fontSize=10;fontStyle=1;spacing=3;shape=mxgraph.aws4.productIcon;prIcon=mxgraph.aws4.systems_manager;" vertex="1" parent="4QO9HTvv0mizKw2v97-c-1">
          <mxGeometry x="270" y="330" width="80" height="110" as="geometry" />
        </mxCell>
        <mxCell id="4QO9HTvv0mizKw2v97-c-35" value="Peering Connection" style="sketch=0;outlineConnect=0;fontColor=#232F3E;gradientColor=none;fillColor=#8C4FFF;strokeColor=none;dashed=0;verticalLabelPosition=bottom;verticalAlign=top;align=center;html=1;fontSize=12;fontStyle=0;aspect=fixed;pointerEvents=1;shape=mxgraph.aws4.peering;" vertex="1" parent="1">
          <mxGeometry x="510" y="292.5" width="50" height="50" as="geometry" />
        </mxCell>
        <mxCell id="4QO9HTvv0mizKw2v97-c-36" value="" style="edgeStyle=orthogonalEdgeStyle;html=1;endArrow=block;elbow=vertical;startArrow=block;startFill=1;endFill=1;strokeColor=#545B64;rounded=0;exitX=1;exitY=0.5;exitDx=0;exitDy=0;" edge="1" parent="1" source="4QO9HTvv0mizKw2v97-c-3" target="4QO9HTvv0mizKw2v97-c-35">
          <mxGeometry width="100" relative="1" as="geometry">
            <mxPoint x="350" y="309" as="sourcePoint" />
            <mxPoint x="440" y="309" as="targetPoint" />
          </mxGeometry>
        </mxCell>
        <mxCell id="4QO9HTvv0mizKw2v97-c-38" value="" style="edgeStyle=orthogonalEdgeStyle;html=1;endArrow=block;elbow=vertical;startArrow=block;startFill=1;endFill=1;strokeColor=#545B64;rounded=0;" edge="1" parent="1" source="4QO9HTvv0mizKw2v97-c-35" target="4QO9HTvv0mizKw2v97-c-25">
          <mxGeometry width="100" relative="1" as="geometry">
            <mxPoint x="615" y="330" as="sourcePoint" />
            <mxPoint x="675" y="320" as="targetPoint" />
            <Array as="points">
              <mxPoint x="650" y="318" />
              <mxPoint x="650" y="318" />
            </Array>
          </mxGeometry>
        </mxCell>
      </root>
    </mxGraphModel>
  </diagram>
</mxfile>
